HIERARCHY
ROOT mixamorig:Hips
{
	OFFSET 0.000000 201.639420 0.000000
	CHANNELS 6 Xposition Yposition Zposition Xrotation Yrotation Zrotation
	JOINT mixamorig:Spine
	{
		OFFSET 0.006200 19.524994 -2.481800
		CHANNELS 3 Xrotation Yrotation Zrotation
		JOINT mixamorig:Spine1
		{
			OFFSET -0.000900 22.835007 -2.825400
			CHANNELS 3 Xrotation Yrotation Zrotation
			JOINT mixamorig:Spine2
			{
				OFFSET -0.020600 26.552490 -3.193300
				CHANNELS 3 Xrotation Yrotation Zrotation
				JOINT mixamorig:Neck
				{
					OFFSET -0.060000 30.701813 1.352200
					CHANNELS 3 Xrotation Yrotation Zrotation
					JOINT mixamorig:Head
					{
						OFFSET -0.087200 22.547607 3.670900
						CHANNELS 3 Xrotation Yrotation Zrotation
						JOINT mixamorig:HeadTop_End
						{
							OFFSET -0.830600 40.355194 7.893500
							CHANNELS 3 Xrotation Yrotation Zrotation
							End Site
							{
								OFFSET 0.000000 30.592346 0.000000
							}
						}
						JOINT mixamorig:RightEye
						{
							OFFSET -6.302100 18.118591 16.197100
							CHANNELS 3 Xrotation Yrotation Zrotation
							End Site
							{
								OFFSET 0.000000 30.592346 0.000000
							}
						}
						JOINT mixamorig:LeftEye
						{
							OFFSET 6.741500 18.382690 16.401899
							CHANNELS 3 Xrotation Yrotation Zrotation
							End Site
							{
								OFFSET 0.000000 30.592346 0.000000
							}
						}
					}
				}
				JOINT mixamorig:LeftShoulder
				{
					OFFSET 11.924900 18.230499 1.425400
					CHANNELS 3 Xrotation Yrotation Zrotation
					JOINT mixamorig:LeftArm
					{
						OFFSET 25.435989 -0.697632 -5.229300
						CHANNELS 3 Xrotation Yrotation Zrotation
						JOINT mixamorig:LeftForeArm
						{
							OFFSET 54.684776 0.000000 0.000000
							CHANNELS 3 Xrotation Yrotation Zrotation
							JOINT mixamorig:LeftHand
							{
								OFFSET 55.098175 0.000000 0.000000
								CHANNELS 3 Xrotation Yrotation Zrotation
								JOINT mixamorig:LeftHandMiddle1
								{
									OFFSET 23.369751 0.000000 0.000000
									CHANNELS 3 Xrotation Yrotation Zrotation
									JOINT mixamorig:LeftHandMiddle2
									{
										OFFSET 6.378677 0.000000 0.000000
										CHANNELS 3 Xrotation Yrotation Zrotation
										JOINT mixamorig:LeftHandMiddle3
										{
											OFFSET 6.148331 0.000000 0.000000
											CHANNELS 3 Xrotation Yrotation Zrotation
											JOINT mixamorig:LeftHandMiddle4
											{
												OFFSET 6.582504 0.000000 0.000000
												CHANNELS 3 Xrotation Yrotation Zrotation
												End Site
												{
													OFFSET -1.168900 6.395691 1.028606
												}
											}
										}
									}
								}
								JOINT mixamorig:LeftHandThumb1
								{
									OFFSET 7.235672 -3.848206 5.434273
									CHANNELS 3 Xrotation Yrotation Zrotation
									JOINT mixamorig:LeftHandThumb2
									{
										OFFSET 6.568451 -3.792297 3.792300
										CHANNELS 3 Xrotation Yrotation Zrotation
										JOINT mixamorig:LeftHandThumb3
										{
											OFFSET 6.063080 -3.500519 3.500518
											CHANNELS 3 Xrotation Yrotation Zrotation
											JOINT mixamorig:LeftHandThumb4
											{
												OFFSET 4.793182 -2.767334 2.767349
												CHANNELS 3 Xrotation Yrotation Zrotation
												End Site
												{
													OFFSET 0.101639 6.054260 1.275483
												}
											}
										}
									}
								}
								JOINT mixamorig:LeftHandIndex1
								{
									OFFSET 23.101074 -0.309540 4.992809
									CHANNELS 3 Xrotation Yrotation Zrotation
									JOINT mixamorig:LeftHandIndex2
									{
										OFFSET 6.226883 0.000000 0.000000
										CHANNELS 3 Xrotation Yrotation Zrotation
										JOINT mixamorig:LeftHandIndex3
										{
											OFFSET 6.094330 0.000000 0.000000
											CHANNELS 3 Xrotation Yrotation Zrotation
											JOINT mixamorig:LeftHandIndex4
											{
												OFFSET 5.482605 0.000000 0.000000
												CHANNELS 3 Xrotation Yrotation Zrotation
												End Site
												{
													OFFSET -1.427902 5.233032 0.797164
												}
											}
										}
									}
								}
								JOINT mixamorig:LeftHandRing1
								{
									OFFSET 22.299240 0.021149 -3.964172
									CHANNELS 3 Xrotation Yrotation Zrotation
									JOINT mixamorig:LeftHandRing2
									{
										OFFSET 6.321869 0.000000 0.000000
										CHANNELS 3 Xrotation Yrotation Zrotation
										JOINT mixamorig:LeftHandRing3
										{
											OFFSET 5.899796 0.000000 0.000000
											CHANNELS 3 Xrotation Yrotation Zrotation
											JOINT mixamorig:LeftHandRing4
											{
												OFFSET 6.517899 0.000000 0.000000
												CHANNELS 3 Xrotation Yrotation Zrotation
												End Site
												{
													OFFSET -1.637299 6.232208 0.980890
												}
											}
										}
									}
								}
								JOINT mixamorig:LeftHandPinky1
								{
									OFFSET 20.463791 -0.302338 -8.562233
									CHANNELS 3 Xrotation Yrotation Zrotation
									JOINT mixamorig:LeftHandPinky2
									{
										OFFSET 6.908646 0.000000 0.000000
										CHANNELS 3 Xrotation Yrotation Zrotation
										JOINT mixamorig:LeftHandPinky3
										{
											OFFSET 4.622849 0.000000 0.000000
											CHANNELS 3 Xrotation Yrotation Zrotation
											JOINT mixamorig:LeftHandPinky4
											{
												OFFSET 5.216080 0.000000 0.000000
												CHANNELS 3 Xrotation Yrotation Zrotation
												End Site
												{
													OFFSET -0.606308 5.116241 0.814926
												}
											}
										}
									}
								}
							}
						}
					}
				}
				JOINT mixamorig:RightShoulder
				{
					OFFSET -12.001300 18.284088 1.348900
					CHANNELS 3 Xrotation Yrotation Zrotation
					JOINT mixamorig:RightArm
					{
						OFFSET -25.308500 -0.751312 -5.164599
						CHANNELS 3 Xrotation Yrotation Zrotation
						JOINT mixamorig:RightForeArm
						{
							OFFSET -54.684429 0.000000 0.000000
							CHANNELS 3 Xrotation Yrotation Zrotation
							JOINT mixamorig:RightHand
							{
								OFFSET -55.150291 0.000000 0.000000
								CHANNELS 3 Xrotation Yrotation Zrotation
								JOINT mixamorig:RightHandMiddle1
								{
									OFFSET -23.317566 0.000000 0.000000
									CHANNELS 3 Xrotation Yrotation Zrotation
									JOINT mixamorig:RightHandMiddle2
									{
										OFFSET -6.378403 0.000000 0.000000
										CHANNELS 3 Xrotation Yrotation Zrotation
										JOINT mixamorig:RightHandMiddle3
										{
											OFFSET -6.148193 0.000000 0.000000
											CHANNELS 3 Xrotation Yrotation Zrotation
											JOINT mixamorig:RightHandMiddle4
											{
												OFFSET -6.583389 0.000000 0.000000
												CHANNELS 3 Xrotation Yrotation Zrotation
												End Site
												{
													OFFSET 1.171692 6.395905 1.029786
												}
											}
										}
									}
								}
								JOINT mixamorig:RightHandThumb1
								{
									OFFSET -7.190521 -3.860474 5.435846
									CHANNELS 3 Xrotation Yrotation Zrotation
									JOINT mixamorig:RightHandThumb2
									{
										OFFSET -6.567429 -3.791718 3.791708
										CHANNELS 3 Xrotation Yrotation Zrotation
										JOINT mixamorig:RightHandThumb3
										{
											OFFSET -6.062469 -3.500153 3.500166
											CHANNELS 3 Xrotation Yrotation Zrotation
											JOINT mixamorig:RightHandThumb4
											{
												OFFSET -4.792618 -2.767029 2.767022
												CHANNELS 3 Xrotation Yrotation Zrotation
												End Site
												{
													OFFSET -0.100327 6.053253 1.276754
												}
											}
										}
									}
								}
								JOINT mixamorig:RightHandIndex1
								{
									OFFSET -23.048981 -0.310791 4.992554
									CHANNELS 3 Xrotation Yrotation Zrotation
									JOINT mixamorig:RightHandIndex2
									{
										OFFSET -6.227539 0.000000 0.000000
										CHANNELS 3 Xrotation Yrotation Zrotation
										JOINT mixamorig:RightHandIndex3
										{
											OFFSET -6.095047 0.000000 0.000000
											CHANNELS 3 Xrotation Yrotation Zrotation
											JOINT mixamorig:RightHandIndex4
											{
												OFFSET -5.484772 0.000000 0.000000
												CHANNELS 3 Xrotation Yrotation Zrotation
												End Site
												{
													OFFSET 1.420593 5.237305 0.797056
												}
											}
										}
									}
								}
								JOINT mixamorig:RightHandRing1
								{
									OFFSET -22.246323 0.020569 -3.963762
									CHANNELS 3 Xrotation Yrotation Zrotation
									JOINT mixamorig:RightHandRing2
									{
										OFFSET -6.322128 0.000000 0.000000
										CHANNELS 3 Xrotation Yrotation Zrotation
										JOINT mixamorig:RightHandRing3
										{
											OFFSET -5.900024 0.000000 0.000000
											CHANNELS 3 Xrotation Yrotation Zrotation
											JOINT mixamorig:RightHandRing4
											{
												OFFSET -6.518356 0.000000 0.000000
												CHANNELS 3 Xrotation Yrotation Zrotation
												End Site
												{
													OFFSET 1.636398 6.232697 0.982186
												}
											}
										}
									}
								}
								JOINT mixamorig:RightHandPinky1
								{
									OFFSET -20.411011 -0.303314 -8.561701
									CHANNELS 3 Xrotation Yrotation Zrotation
									JOINT mixamorig:RightHandPinky2
									{
										OFFSET -6.907349 0.000000 0.000000
										CHANNELS 3 Xrotation Yrotation Zrotation
										JOINT mixamorig:RightHandPinky3
										{
											OFFSET -4.623840 0.000000 0.000000
											CHANNELS 3 Xrotation Yrotation Zrotation
											JOINT mixamorig:RightHandPinky4
											{
												OFFSET -5.218353 0.000000 0.000000
												CHANNELS 3 Xrotation Yrotation Zrotation
												End Site
												{
													OFFSET 0.602097 5.118835 0.816273
												}
											}
										}
									}
								}
							}
						}
					}
				}
			}
		}
	}
	JOINT mixamorig:LeftUpLeg
	{
		OFFSET 18.168400 -13.561905 -0.039000
		CHANNELS 3 Xrotation Yrotation Zrotation
		JOINT mixamorig:LeftLeg
		{
			OFFSET 0.577358 -80.825211 -3.695000
			CHANNELS 3 Xrotation Yrotation Zrotation
			JOINT mixamorig:LeftFoot
			{
				OFFSET -0.577356 -83.370262 -6.520700
				CHANNELS 3 Xrotation Yrotation Zrotation
				JOINT mixamorig:LeftToeBase
				{
					OFFSET 0.750401 -20.798306 25.135401
					CHANNELS 3 Xrotation Yrotation Zrotation
					JOINT mixamorig:LeftToe_End
					{
						OFFSET -0.000500 0.001200 19.917799
						CHANNELS 3 Xrotation Yrotation Zrotation
						End Site
						{
							OFFSET 0.000000 19.917805 0.000000
						}
					}
				}
			}
		}
	}
	JOINT mixamorig:RightUpLeg
	{
		OFFSET -18.162500 -13.585098 -0.041000
		CHANNELS 3 Xrotation Yrotation Zrotation
		JOINT mixamorig:RightLeg
		{
			OFFSET -0.595024 -80.945297 -3.631900
			CHANNELS 3 Xrotation Yrotation Zrotation
			JOINT mixamorig:RightFoot
			{
				OFFSET 0.595024 -83.218193 -6.561200
				CHANNELS 3 Xrotation Yrotation Zrotation
				JOINT mixamorig:RightToeBase
				{
					OFFSET -0.753601 -20.807106 25.115000
					CHANNELS 3 Xrotation Yrotation Zrotation
					JOINT mixamorig:RightToe_End
					{
						OFFSET 0.000299 0.001700 19.918200
						CHANNELS 3 Xrotation Yrotation Zrotation
						End Site
						{
							OFFSET 0.000000 19.918203 0.000000
						}
					}
				}
			}
		}
	}
}
MOTION
Frames: 4
Frame Time: 0.033333
-1.082014 189.651306 1.933207 -4.053017 -23.722096 -5.036294 1.319405 -0.203486 0.099460 1.718811 -1.136669 0.171266 1.717779 -1.137139 0.200057 -0.521048 -3.616412 -0.416857 -3.691020 -20.557932 8.064863 -0.000000 0.000003 0.000000 -0.000000 0.000003 0.000000 -0.000000 0.000003 0.000000 0.219195 2.770083 -3.601864 17.046694 -13.162362 -69.002731 -0.000008 -30.247131 0.000004 10.488843 3.431035 -0.125675 0.031446 0.749779 -9.187975 0.978783 3.543550 -30.873118 0.093973 1.136036 -9.457678 0.000003 -0.000003 -0.000000 -5.342860 5.299128 19.434041 3.200014 21.005704 0.684656 -1.314947 0.292587 2.766907 0.000001 -0.000001 0.000004 0.106521 -1.429284 5.518382 1.758375 4.600426 -41.818028 0.152809 1.445459 -12.069157 -0.000000 0.000001 -0.000002 1.238090 4.077205 -27.172501 0.341951 2.146903 -18.097896 0.034347 0.688299 -5.713293 0.000001 -0.000002 0.000003 4.818728 8.029079 -41.469487 0.079351 -2.958368 -9.631710 0.004260 0.242495 -2.009767 0.000000 0.000000 0.000000 0.670608 6.793977 7.865559 -2.875353 7.498810 72.087066 -0.000006 27.249052 0.000006 4.913721 -0.706721 -3.093708 0.199234 -1.863258 22.392029 1.109385 -3.772968 32.760408 -0.341438 0.101119 -0.790464 0.000000 -0.000002 0.000000 5.970958 -13.818597 1.219827 4.147590 -22.820050 0.225621 -2.271670 1.880870 -2.403255 0.000000 0.000000 -0.000000 -1.150674 2.038022 19.836488 1.224639 -3.945900 34.472542 0.000594 0.091250 -0.748775 -0.000000 0.000001 -0.000003 2.765599 -7.166452 26.358233 0.958769 -3.528415 30.395233 -0.424541 0.120649 -0.932361 -0.000002 -0.000000 0.000001 4.797626 -10.018299 30.220223 0.841314 -3.320443 28.429119 0.001478 0.143590 -1.178332 0.000001 -0.000000 -0.000001 -17.821666 7.679942 8.080541 45.396641 10.523627 1.206499 -20.726791 24.658083 -1.157065 -2.965900 0.000008 -0.000006 -0.000000 -0.000001 -0.000000 -24.265782 -9.977660 -3.843895 39.441399 -0.372398 -0.659029 -11.893838 8.947940 2.863503 -1.675042 0.000005 0.000002 0.000000 0.000000 0.000000 
-0.957694 189.940277 2.123632 -4.032936 -24.904692 -4.919886 1.338077 -0.308553 0.172082 1.743449 -1.448726 0.267004 1.739897 -1.449283 0.301710 -0.717528 -3.380125 -0.603919 -3.939065 -19.471618 7.490757 0.000000 0.000003 -0.000000 0.000000 0.000003 -0.000000 0.000000 0.000003 -0.000000 0.256697 2.665604 -4.148953 16.332152 -12.024986 -68.655429 -0.000009 -31.504913 0.000003 10.209639 3.134497 0.592703 0.036815 0.773071 -8.897650 0.959459 3.511068 -30.559011 0.089364 1.108008 -9.222330 0.000001 0.000000 0.000000 -5.470707 5.247329 19.704266 3.199787 21.006100 0.684767 -1.367198 0.201371 2.782233 0.000002 -0.000002 -0.000000 0.100902 -1.390562 5.375663 1.712950 4.549320 -41.248701 0.139803 1.383184 -11.541759 -0.000001 0.000001 -0.000003 1.225202 4.085861 -26.352868 0.341034 2.144088 -18.073142 0.036260 0.707163 -5.870494 -0.000001 -0.000001 -0.000002 4.730868 8.084845 -40.205325 0.083543 -2.933899 -9.836891 0.006401 0.297453 -2.465584 -0.000002 0.000000 0.000000 0.671592 6.592989 7.722488 -3.196412 6.982195 71.956193 -0.000009 26.032738 0.000033 5.090078 -1.386371 -3.401859 0.436420 -2.458686 23.748052 1.087466 -3.738742 32.425702 -0.330996 0.113838 -0.891126 -0.000001 -0.000000 -0.000004 6.203190 -13.747045 1.695857 4.175160 -22.906351 0.210671 -2.225990 1.804531 -2.391404 0.000000 0.000001 0.000001 -1.049449 1.406518 21.420013 1.194222 -3.901327 34.027938 0.000792 0.105673 -0.867141 -0.000003 -0.000002 0.000000 3.159030 -7.723627 27.472944 0.945366 -3.505514 30.176811 -0.391674 0.129230 -1.003173 0.000000 0.000001 -0.000002 5.279670 -10.563333 31.167386 0.832857 -3.304794 28.282715 0.001575 0.148255 -1.216616 -0.000001 0.000000 0.000000 -17.351148 8.188492 7.844687 44.722504 10.529917 1.203351 -20.567511 25.341781 -1.054062 -2.979238 -0.000006 0.000006 0.000000 -0.000000 0.000000 -24.250156 -9.983882 -3.797902 38.968849 0.319213 -0.909524 -11.606440 9.319528 2.782083 -1.764006 -0.000002 -0.000000 -0.000000 0.000001 -0.000000 
-0.875442 190.292038 2.214827 -3.998637 -25.120415 -4.729501 1.350696 -0.383336 0.212106 1.752311 -1.671473 0.320989 1.746781 -1.672058 0.360193 -0.888074 -3.270091 -0.728952 -4.100511 -18.981181 7.130915 0.000000 -0.000000 0.000000 0.000000 -0.000000 0.000000 0.000000 -0.000000 0.000000 0.293614 2.555933 -4.706328 15.445612 -10.855639 -68.246424 0.000012 -32.569419 0.000022 9.824426 2.267540 0.949637 0.044119 0.813437 -8.668547 0.940430 3.478716 -30.246858 0.085180 1.081817 -9.002525 -0.000001 0.000003 -0.000000 -5.628826 5.234767 20.061898 3.199609 21.006482 0.684836 -1.455037 0.047692 2.807963 0.000005 -0.000000 -0.000000 0.095329 -1.337694 5.333376 1.671229 4.501444 -40.719891 0.128355 1.325986 -11.058156 -0.000001 0.000000 0.000000 1.225113 4.111584 -25.792915 0.338838 2.137334 -18.014332 0.037833 0.722257 -5.996073 0.000000 0.000001 0.000003 4.682327 8.135815 -39.366437 0.086530 -2.916857 -9.980261 0.008604 0.344942 -2.859654 -0.000003 -0.000001 -0.000003 0.669561 6.355179 7.594601 -3.075247 6.651374 71.827157 -0.000004 25.252895 0.000017 5.347299 -2.124552 -3.421925 0.718257 -3.084783 25.294892 1.059605 -3.694616 31.995946 -0.318353 0.129955 -1.019059 0.000003 0.000001 0.000002 6.395872 -13.626519 2.144687 4.210465 -23.006439 0.193448 -2.147661 1.669196 -2.369161 -0.000002 -0.000000 -0.000000 -0.909026 0.714901 23.259511 1.156203 -3.844551 33.465106 0.001117 0.124665 -1.022993 -0.000000 -0.000000 -0.000003 3.592244 -8.280905 28.697808 0.927858 -3.475279 29.889161 -0.355401 0.139261 -1.086436 -0.000001 0.000002 -0.000004 5.785686 -11.092706 32.160342 0.821377 -3.283411 28.082973 0.001675 0.152748 -1.253483 0.000000 -0.000000 0.000000 -16.929085 8.458643 7.556302 43.921050 10.522677 1.257120 -20.338263 25.389265 -0.937788 -2.928565 -0.000005 0.000000 -0.000000 0.000002 0.000000 -24.019976 -9.833982 -3.846861 38.384362 0.508446 -1.023251 -11.321997 9.230476 2.859899 -1.770131 -0.000007 0.000002 0.000000 0.000000 -0.000000 
-0.815789 190.829727 2.191417 -3.929243 -24.540883 -4.459617 1.364279 -0.438268 0.233283 1.766190 -1.815913 0.352920 1.759459 -1.816395 0.395606 -1.020005 -3.245142 -0.806365 -4.264425 -18.898293 6.930764 -0.000000 -0.000000 0.000000 -0.000000 -0.000000 0.000000 -0.000000 -0.000000 0.000000 0.325710 2.450572 -5.194562 14.564193 -9.995109 -67.887620 0.000001 -33.480088 -0.000012 9.414538 1.001048 0.956354 0.053695 0.875109 -8.605753 0.921530 3.446148 -29.933717 0.081331 1.057338 -8.797071 -0.000003 -0.000000 0.000000 -5.779961 5.271823 20.421296 3.199436 21.006862 0.684906 -1.569438 -0.153124 2.841384 -0.000002 -0.000003 -0.000001 0.088448 -1.267504 5.312180 1.636045 4.460358 -40.269347 0.119103 1.277705 -10.650492 -0.000002 0.000001 -0.000000 1.243795 4.158262 -25.629235 0.333465 2.120782 -17.869812 0.038405 0.727754 -6.042025 0.000001 0.000001 -0.000003 4.691092 8.179279 -39.118980 0.086262 -2.918400 -9.967614 0.010191 0.375098 -3.109681 -0.000002 0.000002 -0.000003 0.667800 6.119137 7.447929 -2.657278 6.386579 71.748631 -0.000003 24.887725 -0.000011 5.566788 -2.790487 -3.326053 1.007430 -3.654086 26.811515 1.030562 -3.647814 31.542357 -0.306407 0.147818 -1.161065 0.000000 0.000002 0.000004 6.525161 -13.480387 2.499812 4.240765 -23.093254 0.176918 -2.049924 1.496792 -2.339658 0.000000 0.000000 0.000000 -0.739952 0.053372 25.085123 1.116853 -3.784492 32.873646 0.001533 0.146499 -1.202218 0.000002 0.000000 0.000001 3.999234 -8.752642 29.865310 0.909463 -3.443135 29.584275 -0.322373 0.149521 -1.171824 -0.000002 0.000001 -0.000002 6.233869 -11.518799 33.070314 0.809265 -3.260629 27.870665 0.001746 0.156305 -1.282698 0.000000 -0.000000 0.000001 -16.512950 8.893296 7.348455 42.764146 10.502965 1.404018 -19.911386 24.567089 -0.849940 -2.835751 -0.000003 -0.000001 -0.000000 -0.000000 -0.000000 -23.501561 -9.709266 -3.973435 37.432527 0.336211 -1.081170 -10.968178 8.871004 2.995597 -1.745485 -0.000002 0.000001 0.000000 -0.000000 -0.000000 
